<svg width="18" height="18" viewBox="0 0 18 18" fill="none" xmlns="http://www.w3.org/2000/svg">
<path d="M9.00099 1.5C4.85723 1.5 1.50098 4.85625 1.50098 9C1.50098 12.3188 3.64785 15.1219 6.6291 16.1156C7.0041 16.1813 7.14473 15.9563 7.14473 15.7594C7.14473 15.5813 7.13535 14.9906 7.13535 14.3625C5.25098 14.7094 4.76348 13.9031 4.61348 13.4813C4.5291 13.2656 4.16348 12.6 3.84473 12.4219C3.58223 12.2813 3.20723 11.9344 3.83535 11.925C4.42598 11.9156 4.84785 12.4688 4.98848 12.6938C5.66348 13.8281 6.7416 13.5094 7.17285 13.3125C7.23848 12.825 7.43535 12.4969 7.65099 12.3094C5.98223 12.1219 4.23848 11.475 4.23848 8.60625C4.23848 7.79063 4.5291 7.11563 5.00723 6.59063C4.93223 6.40313 4.66973 5.63438 5.08223 4.60313C5.08223 4.60313 5.71035 4.40625 7.14473 5.37188C7.74474 5.20313 8.38224 5.11875 9.01974 5.11875C9.65724 5.11875 10.2947 5.20313 10.8947 5.37188C12.3291 4.39688 12.9572 4.60313 12.9572 4.60313C13.3697 5.63438 13.1072 6.40313 13.0322 6.59063C13.5104 7.11563 13.801 7.78125 13.801 8.60625C13.801 11.4844 12.0479 12.1219 10.3791 12.3094C10.651 12.5438 10.8854 12.9938 10.8854 13.6969C10.8854 14.7 10.876 15.5063 10.876 15.7594C10.876 15.9563 11.0166 16.1906 11.3916 16.1156C14.4445 15.085 16.5002 12.2222 16.501 9C16.501 4.85625 13.1447 1.5 9.00099 1.5Z" fill="#1F1F1F"/>
</svg>
