<svg width="22" height="22" viewBox="0 0 22 22" fill="none" xmlns="http://www.w3.org/2000/svg">
<path d="M11.0009 1.83331C5.93631 1.83331 1.83423 5.9354 1.83423 11C1.83423 15.0562 4.45819 18.4823 8.10194 19.6969C8.56027 19.7771 8.73215 19.5021 8.73215 19.2614C8.73215 19.0437 8.72069 18.3219 8.72069 17.5541C6.41756 17.9781 5.82173 16.9927 5.6384 16.4771C5.53527 16.2135 5.0884 15.4 4.69881 15.1823C4.37798 15.0104 3.91965 14.5864 4.68735 14.575C5.40923 14.5635 5.92485 15.2396 6.09673 15.5146C6.92173 16.901 8.23944 16.5114 8.76652 16.2708C8.84673 15.675 9.08735 15.2739 9.35091 15.0448C7.31131 14.8156 5.18006 14.025 5.18006 10.5187C5.18006 9.52186 5.53527 8.69686 6.11965 8.05519C6.02798 7.82602 5.70715 6.88644 6.21131 5.62602C6.21131 5.62602 6.97902 5.3854 8.73215 6.5656C9.4655 6.35935 10.2447 6.25623 11.0238 6.25623C11.803 6.25623 12.5822 6.35935 13.3155 6.5656C15.0686 5.37394 15.8363 5.62602 15.8363 5.62602C16.3405 6.88644 16.0197 7.82602 15.928 8.05519C16.5124 8.69686 16.8676 9.5104 16.8676 10.5187C16.8676 14.0364 14.7249 14.8156 12.6853 15.0448C13.0176 15.3312 13.304 15.8812 13.304 16.7406C13.304 17.9666 13.2926 18.9521 13.2926 19.2614C13.2926 19.5021 13.4645 19.7885 13.9228 19.6969C17.6541 18.4372 20.1666 14.9383 20.1676 11C20.1676 5.9354 16.0655 1.83331 11.0009 1.83331Z" fill="white"/>
</svg>
