<svg width="22" height="22" viewBox="0 0 22 22" fill="none" xmlns="http://www.w3.org/2000/svg">
<path d="M5.5 7.33333V6.41666C5.5 3.3791 7.96243 0.916664 11 0.916664C14.0376 0.916664 16.5 3.3791 16.5 6.41666V7.33333H18.3333C18.8396 7.33333 19.25 7.74374 19.25 8.25V19.25C19.25 19.7563 18.8396 20.1667 18.3333 20.1667H3.66667C3.16041 20.1667 2.75 19.7563 2.75 19.25V8.25C2.75 7.74374 3.16041 7.33333 3.66667 7.33333H5.5ZM17.4167 9.16666H4.58333V18.3333H17.4167V9.16666ZM10.0833 14.4214C9.53535 14.1044 9.16667 13.5119 9.16667 12.8333C9.16667 11.8208 9.98745 11 11 11C12.0126 11 12.8333 11.8208 12.8333 12.8333C12.8333 13.5119 12.4647 14.1044 11.9167 14.4214V16.5H10.0833V14.4214ZM7.33333 7.33333H14.6667V6.41666C14.6667 4.39162 13.025 2.75 11 2.75C8.97496 2.75 7.33333 4.39162 7.33333 6.41666V7.33333Z" fill="white"/>
</svg>
